<svg
	xmlns="http://www.w3.org/2000/svg"
	viewBox="0 0 4000 4000"
>
	<rect
		width="4000"
		height="4000"
		fill="white"
	/>
	<path
		d="M 3047.5 571.5 V 3427.5 H 951.5 V 571.5 H 3047.5 M 3147.5 471.5 H 851.5 V 3527.5 H 3147.5 V 471.5 Z M 2847.5 771.5 V 2243.5 H 1151.5 V 771.5 H 2847.5 M 2947.5 671.5 H 1051.5 V 2343.5 H 2947.5 V 671.5 Z M 1204.85 2878.27 V 2938.88 H 1051.5 V 2878.27 Z M 1081.2 2822.5 H 1164.85 V 3036.17 A 17.59 17.59 0 0 0 1166.52 3044.28 A 10.45 10.45 0 0 0 1171.67 3049.13 A 21.62 21.62 0 0 0 1180.61 3050.72 A 51.74 51.74 0 0 0 1189.47 3049.81 C 1192.86 3049.2 1195.36 3048.7 1196.97 3048.29 L 1209.1 3107.09 Q 1203.49 3108.75 1193.1 3111.18 A 142.17 142.17 0 0 1 1168.48 3114.36 Q 1139.68 3115.87 1120.14 3108.36 T 1090.74 3084.64 Q 1080.88 3068.42 1081.19 3044.03 Z M 1347.9 3115.27 Q 1310.62 3115.27 1283.73 3100.95 A 98.49 98.49 0 0 1 1242.36 3059.73 Q 1227.89 3032.84 1227.88 2995.25 Q 1227.88 2959.19 1242.43 2932.25 A 104 104 0 0 1 1283.5 2890.25 Q 1310.02 2875.25 1346.08 2875.25 Q 1372.45 2875.25 1393.82 2883.43 A 100.58 100.58 0 0 1 1430.34 2907.15 A 105.42 105.42 0 0 1 1453.67 2944.8 Q 1461.86 2966.93 1461.86 2994.66 V 3014.06 H 1253.95 V 2967.99 H 1384.88 A 32.91 32.91 0 0 0 1379.8 2950.33 A 34.28 34.28 0 0 0 1366.62 2938.33 A 39.8 39.8 0 0 0 1347.9 2934.01 A 40.49 40.49 0 0 0 1329.26 2938.33 A 35.19 35.19 0 0 0 1315.7 2950.23 A 32.86 32.86 0 0 0 1310.32 2967.96 V 3017.66 A 41.81 41.81 0 0 0 1315.02 3037.66 A 34.07 34.07 0 0 0 1328.5 3051.5 Q 1337.29 3056.5 1349.72 3056.5 A 49.28 49.28 0 0 0 1365.56 3054.07 A 34.84 34.84 0 0 0 1377.91 3047.02 A 27.7 27.7 0 0 0 1385.48 3035.89 H 1461.86 Q 1457.92 3060.13 1443.22 3077.94 T 1404.35 3105.5 Q 1380.17 3115.27 1347.9 3115.27 Z M 1495.8 3111.03 V 2878.27 H 1575.2 V 2922.5 H 1577.63 Q 1584.89 2900.67 1602.48 2887.95 T 1644.3 2875.22 Q 1668.86 2875.22 1686.58 2888.22 A 51.89 51.89 0 0 1 1707.95 2922.55 H 1710.37 Q 1716.28 2901.18 1735.53 2888.22 T 1780.69 2875.22 Q 1814.17 2875.22 1835.01 2896.74 T 1855.85 2954.02 V 3111.02 H 1772.2 V 2975.25 Q 1772.2 2959.95 1764.47 2951.25 T 1743.71 2942.54 Q 1730.82 2942.54 1723.33 2951.25 T 1715.83 2975.25 V 3111.03 H 1635.83 V 2975.25 Q 1635.83 2959.95 1628.1 2951.25 T 1607.34 2942.54 A 27.11 27.11 0 0 0 1592.5 2946.5 A 25.87 25.87 0 0 0 1582.87 2957.79 A 41.36 41.36 0 0 0 1579.46 2975.29 V 3111.07 Z M 1897.06 3198.31 V 2878.31 H 1980.06 V 2918.92 H 1981.87 A 71.42 71.42 0 0 1 1995.21 2897.17 A 65.05 65.05 0 0 1 2017.03 2881.26 Q 2030.03 2875.26 2047.34 2875.26 A 85.17 85.17 0 0 1 2091.21 2887.53 Q 2112.05 2899.81 2125.15 2926.17 T 2138.26 2994.67 Q 2138.26 3034.97 2125.76 3061.5 T 2092.5 3101.03 A 84.47 84.47 0 0 1 2046.81 3114.03 Q 2030.44 3114.03 2017.64 3108.65 A 64.84 64.84 0 0 1 1995.82 3093.95 A 66.53 66.53 0 0 1 1981.95 3072.81 H 1980.74 V 3198.28 Z M 1978.89 2994.65 Q 1978.89 3011.65 1983.37 3023.97 T 1996.09 3043.07 A 30.32 30.32 0 0 0 2015.87 3049.81 Q 2027.39 3049.81 2035.49 3043.22 T 2047.92 3024.27 Q 2052.24 3011.93 2052.24 2994.65 T 2047.92 2965.02 Q 2043.6 2952.68 2035.49 2946.08 T 2015.87 2939.49 A 30.76 30.76 0 0 0 1996.09 2946.08 Q 1987.84 2952.68 1983.37 2965.02 T 1978.89 2994.65 Z M 2257.11 2800.68 V 3111.03 H 2173.5 V 2800.68 Z M 2364.4 3114.67 Q 2342.12 3114.67 2325.07 3107.32 A 58.66 58.66 0 0 1 2298.33 3084.96 Q 2288.63 3069.96 2288.63 3046.78 Q 2288.63 3027.69 2295.14 3014.12 A 58.91 58.91 0 0 1 2313.33 2991.92 A 85.62 85.62 0 0 1 2340.53 2978.74 A 163.12 163.12 0 0 1 2374.09 2972.83 A 315.4 315.4 0 0 0 2405.54 2969.12 Q 2417.43 2966.92 2422.74 2962.9 A 12.73 12.73 0 0 0 2428.04 2952.22 V 2951.61 Q 2428.04 2942.52 2421.04 2937.67 T 2403.16 2932.82 Q 2391.16 2932.82 2383.69 2938.05 T 2374.69 2954.05 H 2297.69 A 79.33 79.33 0 0 1 2311.25 2914.88 Q 2323.25 2896.88 2346.48 2886.08 T 2404.37 2875.25 Q 2429.37 2875.25 2449.23 2881.08 T 2483.02 2897.3 A 72.7 72.7 0 0 1 2504.31 2921.54 A 63.26 63.26 0 0 1 2511.66 2951.62 V 3111.04 H 2433.5 V 3078.3 H 2431.68 A 67.6 67.6 0 0 1 2414.78 3099.36 A 63.27 63.27 0 0 1 2392.2 3111.03 A 100.51 100.51 0 0 1 2364.4 3114.67 Z M 2391.67 3061.93 A 41.76 41.76 0 0 0 2409.67 3057.99 A 34.44 34.44 0 0 0 2423.38 3046.63 Q 2428.69 3039.2 2428.69 3028.63 V 3009.2 C 2426.46 3010.11 2424.12 3010.96 2421.64 3011.77 S 2416.54 3013.34 2413.76 3014.05 S 2408.05 3015.41 2404.97 3016.05 S 2398.68 3017.21 2395.35 3017.71 A 47.87 47.87 0 0 0 2379.51 3022.64 A 23.62 23.62 0 0 0 2370.42 3030.97 A 21 21 0 0 0 2367.42 3041.97 Q 2367.42 3051.66 2374.24 3056.82 T 2391.67 3061.93 Z M 2690.5 2878.27 V 2938.88 H 2537.14 V 2878.27 Z M 2566.84 2822.5 H 2650.5 V 3036.17 A 17.72 17.72 0 0 0 2652.17 3044.28 A 10.49 10.49 0 0 0 2657.32 3049.13 A 21.65 21.65 0 0 0 2666.26 3050.72 A 51.84 51.84 0 0 0 2675.13 3049.81 C 2678.51 3049.2 2681.01 3048.7 2682.63 3048.29 L 2694.75 3107.09 Q 2689.14 3108.75 2678.75 3111.18 A 142.17 142.17 0 0 1 2654.13 3114.36 Q 2625.33 3115.87 2605.79 3108.36 T 2576.39 3084.64 Q 2566.54 3068.42 2566.84 3044.03 Z M 2833.5 3115.27 Q 2796.23 3115.27 2769.33 3100.95 A 98.6 98.6 0 0 1 2727.96 3059.73 Q 2713.48 3032.84 2713.49 2995.25 Q 2713.49 2959.19 2728.04 2932.25 A 103.91 103.91 0 0 1 2769.1 2890.25 Q 2795.62 2875.25 2831.69 2875.25 Q 2858.05 2875.25 2879.42 2883.43 A 100.41 100.41 0 0 1 2915.94 2907.15 A 105.58 105.58 0 0 1 2939.28 2944.8 Q 2947.45 2966.93 2947.46 2994.66 V 3014.06 H 2739.59 V 2967.99 H 2870.5 A 32.82 32.82 0 0 0 2865.42 2950.33 A 34.28 34.28 0 0 0 2852.24 2938.33 A 39.78 39.78 0 0 0 2833.52 2934.01 A 40.45 40.45 0 0 0 2814.89 2938.33 A 35.29 35.29 0 0 0 2801.32 2950.23 A 33 33 0 0 0 2795.94 2967.96 V 3017.66 A 41.81 41.81 0 0 0 2800.64 3037.66 A 34.1 34.1 0 0 0 2814.13 3051.45 Q 2822.92 3056.45 2835.34 3056.45 A 49.28 49.28 0 0 0 2851.18 3054.02 A 34.75 34.75 0 0 0 2863.53 3046.97 A 27.82 27.82 0 0 0 2871.11 3035.84 H 2947.5 Q 2943.55 3060.08 2928.86 3077.89 T 2889.99 3105.5 Q 2865.83 3115.27 2833.5 3115.27 Z"
	/>
</svg>