<svg
	xmlns="http://www.w3.org/2000/svg"
	viewBox="0 0 2296 3056"
>
	<path
		d="M 2196 100 V 2956 H 100 V 100 H 2196 M 2296 0 H 0 V 3056 H 2296 V 0 Z M 1996 300 V 1772 H 300 V 300 H 1996 M 2096 200 H 200 V 1872 H 2096 V 200 Z"
	/>
	<path
		d=" M 353.35 2406.77 V 2467.38 H 200 V 2406.77 Z M 229.7 2351 H 313.35 V 2564.67 A 17.59 17.59 0 0 0 315.02 2572.78 A 10.45 10.45 0 0 0 320.17 2577.63 A 21.62 21.62 0 0 0 329.11 2579.22 A 51.74 51.74 0 0 0 337.97 2578.31 C 341.36 2577.7 343.86 2577.2 345.47 2576.79 L 357.6 2635.59 Q 351.99 2637.25 341.6 2639.68 A 142.17 142.17 0 0 1 316.98 2642.86 Q 288.18 2644.37 268.64 2636.86 T 239.24 2613.14 Q 229.38 2596.92 229.69 2572.53 Z M 496.4 2643.77 Q 459.12 2643.77 432.23 2629.45 A 98.49 98.49 0 0 1 390.86 2588.23 Q 376.39 2561.34 376.38 2523.75 Q 376.38 2487.69 390.93 2460.75 A 104 104 0 0 1 432 2418.75 Q 458.52 2403.75 494.58 2403.75 Q 520.95 2403.75 542.32 2411.93 A 100.58 100.58 0 0 1 578.84 2435.65 A 105.42 105.42 0 0 1 602.17 2473.3 Q 610.36 2495.43 610.36 2523.16 V 2542.56 H 402.45 V 2496.49 H 533.38 A 32.91 32.91 0 0 0 528.3 2478.83 A 34.28 34.28 0 0 0 515.12 2466.83 A 39.8 39.8 0 0 0 496.4 2462.51 A 40.49 40.49 0 0 0 477.76 2466.83 A 35.19 35.19 0 0 0 464.2 2478.73 A 32.86 32.86 0 0 0 458.82 2496.46 V 2546.16 A 41.81 41.81 0 0 0 463.52 2566.16 A 34.07 34.07 0 0 0 477 2580 Q 485.79 2585 498.22 2585 A 49.28 49.28 0 0 0 514.06 2582.57 A 34.84 34.84 0 0 0 526.41 2575.52 A 27.7 27.7 0 0 0 533.98 2564.39 H 610.36 Q 606.42 2588.63 591.72 2606.44 T 552.85 2634 Q 528.67 2643.77 496.4 2643.77 Z M 644.3 2639.53 V 2406.77 H 723.7 V 2451 H 726.13 Q 733.39 2429.17 750.98 2416.45 T 792.8 2403.72 Q 817.36 2403.72 835.08 2416.72 A 51.89 51.89 0 0 1 856.45 2451.05 H 858.87 Q 864.78 2429.68 884.03 2416.72 T 929.19 2403.72 Q 962.67 2403.72 983.51 2425.24 T 1004.35 2482.52 V 2639.52 H 920.7 V 2503.75 Q 920.7 2488.45 912.97 2479.75 T 892.21 2471.04 Q 879.32 2471.04 871.83 2479.75 T 864.33 2503.75 V 2639.53 H 784.33 V 2503.75 Q 784.33 2488.45 776.6 2479.75 T 755.84 2471.04 A 27.11 27.11 0 0 0 741 2475 A 25.87 25.87 0 0 0 731.37 2486.29 A 41.36 41.36 0 0 0 727.96 2503.79 V 2639.57 Z M 1045.56 2726.81 V 2406.81 H 1128.56 V 2447.42 H 1130.37 A 71.42 71.42 0 0 1 1143.71 2425.67 A 65.05 65.05 0 0 1 1165.53 2409.76 Q 1178.53 2403.76 1195.84 2403.76 A 85.17 85.17 0 0 1 1239.71 2416.03 Q 1260.55 2428.31 1273.65 2454.67 T 1286.76 2523.17 Q 1286.76 2563.47 1274.26 2590 T 1241 2629.53 A 84.47 84.47 0 0 1 1195.31 2642.53 Q 1178.94 2642.53 1166.14 2637.15 A 64.84 64.84 0 0 1 1144.32 2622.45 A 66.53 66.53 0 0 1 1130.45 2601.31 H 1129.24 V 2726.78 Z M 1127.39 2523.15 Q 1127.39 2540.15 1131.87 2552.47 T 1144.59 2571.57 A 30.32 30.32 0 0 0 1164.37 2578.31 Q 1175.89 2578.31 1183.99 2571.72 T 1196.42 2552.77 Q 1200.74 2540.43 1200.74 2523.15 T 1196.42 2493.52 Q 1192.1 2481.18 1183.99 2474.58 T 1164.37 2467.99 A 30.76 30.76 0 0 0 1144.59 2474.58 Q 1136.34 2481.18 1131.87 2493.52 T 1127.39 2523.15 Z M 1405.61 2329.18 V 2639.53 H 1322 V 2329.18 Z M 1512.9 2643.17 Q 1490.62 2643.17 1473.57 2635.82 A 58.66 58.66 0 0 1 1446.83 2613.46 Q 1437.13 2598.46 1437.13 2575.28 Q 1437.13 2556.19 1443.64 2542.62 A 58.91 58.91 0 0 1 1461.83 2520.42 A 85.62 85.62 0 0 1 1489.03 2507.24 A 163.12 163.12 0 0 1 1522.59 2501.33 A 315.4 315.4 0 0 0 1554.04 2497.62 Q 1565.93 2495.42 1571.24 2491.4 A 12.73 12.73 0 0 0 1576.54 2480.72 V 2480.11 Q 1576.54 2471.02 1569.54 2466.17 T 1551.66 2461.32 Q 1539.66 2461.32 1532.19 2466.55 T 1523.19 2482.55 H 1446.19 A 79.33 79.33 0 0 1 1459.75 2443.38 Q 1471.75 2425.38 1494.98 2414.58 T 1552.87 2403.75 Q 1577.87 2403.75 1597.73 2409.58 T 1631.52 2425.8 A 72.7 72.7 0 0 1 1652.81 2450.04 A 63.26 63.26 0 0 1 1660.16 2480.12 V 2639.54 H 1582 V 2606.8 H 1580.18 A 67.6 67.6 0 0 1 1563.28 2627.86 A 63.27 63.27 0 0 1 1540.7 2639.53 A 100.51 100.51 0 0 1 1512.9 2643.17 Z M 1540.17 2590.43 A 41.76 41.76 0 0 0 1558.17 2586.49 A 34.44 34.44 0 0 0 1571.88 2575.13 Q 1577.19 2567.7 1577.19 2557.13 V 2537.7 C 1574.96 2538.61 1572.62 2539.46 1570.14 2540.27 S 1565.04 2541.84 1562.26 2542.55 S 1556.55 2543.91 1553.47 2544.55 S 1547.18 2545.71 1543.85 2546.21 A 47.87 47.87 0 0 0 1528.01 2551.14 A 23.62 23.62 0 0 0 1518.92 2559.47 A 21 21 0 0 0 1515.92 2570.47 Q 1515.92 2580.16 1522.74 2585.32 T 1540.17 2590.43 Z M 1839 2406.77 V 2467.38 H 1685.64 V 2406.77 Z M 1715.34 2351 H 1799 V 2564.67 A 17.72 17.72 0 0 0 1800.67 2572.78 A 10.49 10.49 0 0 0 1805.82 2577.63 A 21.65 21.65 0 0 0 1814.76 2579.22 A 51.84 51.84 0 0 0 1823.63 2578.31 C 1827.01 2577.7 1829.51 2577.2 1831.13 2576.79 L 1843.25 2635.59 Q 1837.64 2637.25 1827.25 2639.68 A 142.17 142.17 0 0 1 1802.63 2642.86 Q 1773.83 2644.37 1754.29 2636.86 T 1724.89 2613.14 Q 1715.04 2596.92 1715.34 2572.53 Z M 1982 2643.77 Q 1944.73 2643.77 1917.83 2629.45 A 98.6 98.6 0 0 1 1876.46 2588.23 Q 1861.98 2561.34 1861.99 2523.75 Q 1861.99 2487.69 1876.54 2460.75 A 103.91 103.91 0 0 1 1917.6 2418.75 Q 1944.12 2403.75 1980.19 2403.75 Q 2006.55 2403.75 2027.92 2411.93 A 100.41 100.41 0 0 1 2064.44 2435.65 A 105.58 105.58 0 0 1 2087.78 2473.3 Q 2095.95 2495.43 2095.96 2523.16 V 2542.56 H 1888.09 V 2496.49 H 2019 A 32.82 32.82 0 0 0 2013.92 2478.83 A 34.28 34.28 0 0 0 2000.74 2466.83 A 39.78 39.78 0 0 0 1982.02 2462.51 A 40.45 40.45 0 0 0 1963.39 2466.83 A 35.29 35.29 0 0 0 1949.82 2478.73 A 33 33 0 0 0 1944.44 2496.46 V 2546.16 A 41.81 41.81 0 0 0 1949.14 2566.16 A 34.1 34.1 0 0 0 1962.63 2579.95 Q 1971.42 2584.95 1983.84 2584.95 A 49.28 49.28 0 0 0 1999.68 2582.52 A 34.75 34.75 0 0 0 2012.03 2575.47 A 27.82 27.82 0 0 0 2019.61 2564.34 H 2096 Q 2092.05 2588.58 2077.36 2606.39 T 2038.49 2634 Q 2014.33 2643.77 1982 2643.77 Z"
	/>
</svg>